<svg xmlns="http://www.w3.org/2000/svg" version="1.1" xmlns:xlink="http://www.w3.org/1999/xlink" xmlns:svgjs="http://svgjs.dev/svgjs" width="2000" height="2250" viewBox="0 0 2000 2250"><g transform="matrix(1,0,0,1,3.410605131648481e-13,0)"><svg viewBox="0 0 320 360" data-background-color="#ffffff" preserveAspectRatio="xMidYMid meet" height="2250" width="2000" xmlns="http://www.w3.org/2000/svg" xmlns:xlink="http://www.w3.org/1999/xlink"><g id="tight-bounds" transform="matrix(1,0,0,1,0,0)"><svg viewBox="0 0 320 360" height="360" width="320"><g><svg></svg></g><g><svg viewBox="0 0 320 360" height="360" width="320"><g><path xmlns="http://www.w3.org/2000/svg" d="M20.961 227.22l3.726 4.658-1.863-6.056c-0.466-2.795-3.726 0.466-1.863 1.398M25.153 224.425c1.397 2.329 2.795 4.658 2.795 6.987 0 3.261 2.795 4.658 5.123 5.589-3.261-3.726-5.124-13.974-7.918-12.576M204.017 26.929c7.918 0 15.371-0.932 23.756 0.931 20.495 5.124 37.729 15.371 49.374 29.811l32.606 52.169c1.397 13.042 4.192 27.482 3.726 43.319 3.261 0 2.795-4.658 6.521-5.59-3.726 9.316-5.59 20.961-6.521 34.469-2.329-7.453 0-18.632 0.466-24.687-3.261 5.124-5.124 1.397-5.124-0.932 0.466-3.726-1.397-3.261-2.795-4.658-5.124-4.658-8.384-9.782-12.11-17.7 2.329-6.055 2.795-14.905-4.658-19.563-2.329-1.397-5.124-3.726-6.521-7.453-1.863-5.124-5.124-11.179-4.193-19.097 0.466-2.329-6.987 5.124-11.179 1.863-18.166-12.576-36.332-27.016-58.224-39.127-11.645 0-20.029-4.192-24.221-9.316-3.726-4.658-0.932-10.713 4.658-11.179 3.261 0 6.987-0.932 9.782 0.932 0.466-1.863 2.329-4.192 4.657-4.192M157.904 16.215l0.932 0.466c4.658 0.932 6.987 7.453 12.11 5.124 0 3.261 0.466 6.521-0.466 8.85-1.397 3.726-5.59 3.726-8.85 3.726-31.208-1.863-49.374 11.179-68.471 22.358-5.124 3.261-10.713 5.59-14.906 9.782-20.029 18.632-41.921 35.866-47.045 70.335l-4.192 38.195c-0.466 4.192-5.124 8.384-4.192 13.508l3.26 22.824c-3.261-3.261-5.124 0.932-4.192 2.795 0.466 1.397 2.329 6.055 5.124 1.863 3.726 6.987 7.453 20.495 12.576 26.55 15.837 18.632 36.332 35.4 53.101 52.169 4.192-0.932 7.453-0.932 8.384-3.727 1.397 2.795-1.397 5.59-3.726 6.056 7.453 4.658 15.837 8.85 27.016 9.781 14.44 0.932 27.948 3.261 40.524 6.522 6.521-1.863 13.042-2.795 20.029-3.261 2.329 0 3.726-3.726 6.521-4.658l0.466-4.658c2.795 4.192 2.329-1.397 0.466-4.192 3.261 2.795 4.192 5.124 5.589 6.987 0-1.397 3.726-6.521 3.727-0.466l0.931-6.055c1.397-0.932 1.863 5.124 3.261 0.931 1.397-4.192 4.192-0.932 6.987-2.329-0.932 1.863-0.466 5.59 2.794 3.261l3.727-3.261c2.329 5.59 6.055 3.261 7.918 2.329 20.495-13.042 40.99-28.413 60.553-43.784l-0.466 6.055 2.329-7.453c2.329 2.329 4.192 0.466 5.124-0.931 2.795-4.658 6.521-9.316 12.577-13.508-7.453 20.029-16.303 35.866-27.482 48.908l-4.658 5.59c0 3.261-0.932 7.453-4.658 7.918-1.863 0.466-5.59-0.932-8.384 1.863-1.397 1.863 3.261 5.59-0.466 2.795-3.261-2.329-6.521 0-10.248 0.932-2.795 0.932 1.863 3.726 2.795 5.589 0.932 1.863 1.863 3.726 1.398 6.056l-5.124-5.59c-6.055 3.261-9.782 9.316-14.906 13.974-2.329 1.863-1.397 5.124-1.397 7.918-3.261 0-6.987-0.932-8.85 0.932-1.397 1.863-0.932 4.658-0.932 7.453-4.658-0.466-5.124-7.453-9.315-6.056-4.192 0.932-8.85 1.397-12.577 3.727 2.795 5.59-4.658 2.329-3.726 3.26-6.987-4.192-13.042-7.453-20.495-4.658-15.837-5.124-35.4-2.795-49.84-0.931 0-2.329 0.466-4.658-0.466-5.124-0.932 2.329-3.726 1.397-3.26 1.397-8.85-6.055-17.7-9.782-27.016-14.905-8.384 0.932-16.303-3.261-18.632-5.59-6.521-6.055-13.974-2.795-20.029-4.192-13.042-3.261-17.7-16.769-19.098-26.084-0.932-4.658-4.658-6.521-6.055-6.056-6.055-19.563-15.371-37.263-22.824-55.429-1.863-4.658-1.397-9.316-1.397-14.44 2.329 0.932 4.658 0.466 4.192-2.794-2.329-15.371-7.918-27.016-13.974-38.195 3.261-15.837 3.726-34.469 11.179-48.443 6.521-12.576 18.632-19.098 27.016-29.811 2.795-3.726 2.795-8.85 5.59-12.11 9.316-9.316 18.632-19.098 28.879-27.482 4.658-3.726 10.247 0 17.234-1.397 2.329-8.384 11.645-15.837 20.495-13.508 3.726 0.932 11.179-8.85 13.508-9.782 3.726-1.397 1.863 3.726 1.863 6.987 8.85-6.987 20.961-10.713 32.14-14.906" fill="#6b7280" fill-rule="nonzero" stroke="none" stroke-width="1" stroke-linecap="butt" stroke-linejoin="miter" stroke-miterlimit="10" stroke-dasharray="" stroke-dashoffset="0" font-family="none" font-weight="none" font-size="none" text-anchor="none" style="mix-blend-mode: normal" data-fill-palette-color="tertiary"></path></g><g transform="matrix(1,0,0,1,64,111.91730948000783)"><svg viewBox="0 0 192 136.16538103998434" height="136.16538103998434" width="192"><g><svg viewBox="0 0 192 136.16538103998434" height="136.16538103998434" width="192"><g transform="matrix(1,0,0,1,0,81.08312679505869)"><svg viewBox="0 0 192 55.08225424492566" height="55.08225424492566" width="192"><g id="textblocktransform"><svg viewBox="0 0 192 55.08225424492566" height="55.08225424492566" width="192" id="textblock"><g><svg viewBox="0 0 192 33.98653702318624" height="33.98653702318624" width="192"><g transform="matrix(1,0,0,1,0,0)"><svg width="192" viewBox="2.299999952316284 -35.20000076293945 200.5399932861328 35.5" height="33.98653702318624" data-palette-color="#6b7280"><path d="M6.85 0.1L6.85 0.1Q2.3 0.1 2.3-0.9L2.3-0.9 2.3-33.3Q2.3-35 3.85-35L3.85-35 12.65-35Q20.05-35 23.33-31.95 26.6-28.9 26.6-23.1L26.6-23.1Q26.6-18.3 23.5-14.3L23.5-14.3Q21.95-12.3 18.95-11.1 15.95-9.9 11.95-9.9L11.95-9.9 11.95-0.95Q11.95-0.35 10.08-0.13 8.2 0.1 6.85 0.1ZM13-26.3L11.95-26.3 11.95-18.4 12.6-18.4Q14.35-18.4 15.55-19.5 16.75-20.6 16.75-22.6 16.75-24.6 15.93-25.45 15.1-26.3 13-26.3L13-26.3ZM40.55-12.05L40.55-0.7Q40.55 0.1 35.8 0.1L35.8 0.1Q31 0.1 31-0.65L31-0.65 31-33.25Q31-35 32.85-35L32.85-35 42.4-35Q55.55-35 55.55-24.75L55.55-24.75Q55.55-21.65 54.35-19.13 53.15-16.6 50.95-15.1L50.95-15.1 57.25-4.6Q56.85-3.4 54.65-1.85L54.65-1.85Q51.65 0.3 49.7 0.3 47.75 0.3 46.8-1.1L46.8-1.1 42.1-12.05 40.55-12.05ZM41.6-26.15L40.55-26.15 40.55-18.65 40.8-18.65Q45.55-18.65 45.55-22.6L45.55-22.6Q45.55-24.4 44.62-25.28 43.7-26.15 41.6-26.15L41.6-26.15ZM84 0.1L84 0.1Q79.65 0.1 79.3-1.3L79.3-1.3 77.65-7.75 69.7-7.75 68.25-1.55Q67.95 0 63.45 0L63.45 0Q61.05 0 59.9-0.28 58.75-0.55 58.75-0.7L58.75-0.7 67.59-34.55Q67.59-34.95 74.45-34.95 81.3-34.95 81.3-34.55L81.3-34.55 89.95-0.65Q89.95-0.3 87.65-0.1 85.34 0.1 84 0.1ZM73.65-24.45L70.95-14.1 76.2-14.1 73.95-24.45 73.65-24.45ZM103.24-12.75L103.24-0.7Q103.24 0.05 98.54 0.05L98.54 0.05 95.74-0.1Q93.24-0.3 93.24-0.8L93.24-0.8 93.24-34.35Q93.24-35.2 98.24-35.2 103.24-35.2 103.24-34.35L103.24-34.35 103.24-21.55 109.34-34.35Q109.69-35.05 113.34-35.05L113.34-35.05Q119.99-35.05 120.34-33.9L120.34-33.9Q120.34-33.8 120.29-33.7L120.29-33.7 111.59-18 121.69-4.05Q121.69-3.95 120.74-3.2L120.74-3.2Q118.44-1.2 115.34-0.05L115.34-0.05Q114.39 0.3 113.44 0.3L113.44 0.3 112.24 0.2Q110.64-0.2 109.74-1.85L109.74-1.85 104.04-12.75 103.24-12.75ZM147.74 0.1L147.74 0.1Q143.39 0.1 143.04-1.3L143.04-1.3 141.39-7.75 133.44-7.75 131.99-1.55Q131.69 0 127.19 0L127.19 0Q124.79 0 123.64-0.28 122.49-0.55 122.49-0.7L122.49-0.7 131.34-34.55Q131.34-34.95 138.19-34.95 145.04-34.95 145.04-34.55L145.04-34.55 153.69-0.65Q153.69-0.3 151.39-0.1 149.09 0.1 147.74 0.1ZM137.39-24.45L134.69-14.1 139.94-14.1 137.69-24.45 137.39-24.45ZM156.49-2.95L156.49-2.95 156.49-34.05Q156.49-35.1 161.56-35.1 166.64-35.1 166.64-34.05L166.64-34.05 166.64-9.55 174.34-9.55Q175.24-9.55 175.59-7.2L175.59-7.2Q175.74-6.05 175.74-4.85 175.74-3.65 175.59-2.4L175.59-2.4Q175.19 0 174.29 0L174.29 0 158.89 0Q157.79 0 157.14-0.9 156.49-1.8 156.49-2.95ZM183.09 0.1L183.09 0.1Q178.54 0.1 178.54-0.9L178.54-0.9 178.54-33.3Q178.54-35 180.09-35L180.09-35 188.89-35Q196.29-35 199.56-31.95 202.84-28.9 202.84-23.1L202.84-23.1Q202.84-18.3 199.74-14.3L199.74-14.3Q198.19-12.3 195.19-11.1 192.19-9.9 188.19-9.9L188.19-9.9 188.19-0.95Q188.19-0.35 186.31-0.13 184.44 0.1 183.09 0.1ZM189.24-26.3L188.19-26.3 188.19-18.4 188.84-18.4Q190.59-18.4 191.79-19.5 192.99-20.6 192.99-22.6 192.99-24.6 192.16-25.45 191.34-26.3 189.24-26.3L189.24-26.3Z" opacity="1" transform="matrix(1,0,0,1,0,0)" fill="#6b7280" class="wordmark-text-0" data-fill-palette-color="primary" id="text-0"></path></svg></g></svg></g><g transform="matrix(1,0,0,1,0,38.945988451757664)"><svg viewBox="0 0 192 16.136265793167993" height="16.136265793167993" width="192"><g transform="matrix(1,0,0,1,0,0)"><svg width="192" viewBox="2.25 -35.45000076293945 534.1900024414062 44.900001525878906" height="16.136265793167993" data-palette-color="#97978d"><path d="M3.55-35L21.2-35Q22.05-35 22.05-30.58 22.05-26.15 21.2-26.15L21.2-26.15 12.05-26.15 12.05-20.45 18.15-20.45Q19-20.45 19-16.57 19-12.7 18.2-12.7L18.2-12.7 12.05-12.7 12.05-0.65Q12.05 0.05 10.18 0.28 8.3 0.5 7.05 0.5L7.05 0.5 4.7 0.4Q2.25 0.1 2.25-0.6L2.25-0.6 2.25-33.7Q2.25-34.5 2.58-34.75 2.9-35 3.55-35L3.55-35ZM24.35-9.95L24.35-24.7Q24.35-25.25 28.65-25.25 32.95-25.25 32.95-24.7L32.95-24.7 32.95-10.1Q32.95-7.6 34.55-7.6L34.55-7.6Q35.75-7.6 37.25-8.65L37.25-8.65 37.25-24.7Q37.25-25.2 41.5-25.2 45.75-25.2 45.75-24.7L45.75-24.7 45.75-8.3 47.05-8.3Q48.75-8.3 48.75-5.05L48.75-5.05Q48.75-3.4 48.05-1.7L48.05-1.7Q47.05 0.5 45.35 0.5L45.35 0.5Q42 0.5 40.4-2.25L40.4-2.25 40.35-2.2Q37.3 0.5 33.8 0.5L33.8 0.5Q28.95 0.5 26.65-1.93 24.35-4.35 24.35-9.95L24.35-9.95ZM60.9-34.65L60.9-0.4Q60.9 0.05 55.8 0.05L55.8 0.05Q51.8 0 51.8-0.35L51.8-0.35 51.8-34.4Q51.8-35.15 56.65-35.15L56.65-35.15Q60.9-35 60.9-34.65L60.9-34.65ZM74.49-34.65L74.49-0.4Q74.49 0.05 69.39 0.05L69.39 0.05Q65.39 0 65.39-0.35L65.39-0.35 65.39-34.4Q65.39-35.15 70.24-35.15L70.24-35.15Q74.49-35 74.49-34.65L74.49-34.65ZM89.94-12.2L89.94-12.2Q90.89-11.45 93.21-10.15 95.54-8.85 97.66-8.85 99.79-8.85 99.79-10.5L99.79-10.5Q99.79-11.25 99.19-11.83 98.59-12.4 96.99-13.15 95.39-13.9 94.59-14.33 93.79-14.75 92.46-15.73 91.14-16.7 90.44-17.75L90.44-17.75Q88.44-20.6 88.44-25 88.44-29.4 91.71-32.43 94.99-35.45 100.29-35.45L100.29-35.45Q103.89-35.45 106.94-34.68 109.99-33.9 110.09-32.65L110.09-32.65Q110.09-32.5 110.09-32.35L110.09-32.35Q110.09-30.6 108.99-27.93 107.89-25.25 107.44-24.95L107.44-24.95Q104.24-26.6 101.71-26.6 99.19-26.6 99.19-24.8L99.19-24.8Q99.19-23.7 101.04-22.85L101.04-22.85Q101.44-22.65 102.19-22.3 102.94-21.95 103.91-21.48 104.89-21 106.01-20.28 107.14-19.55 108.44-18.35L108.44-18.35Q111.09-15.85 111.09-11.75L111.09-11.75Q111.09-6.4 108.14-3 105.19 0.4 99.04 0.5L99.04 0.5Q96.04 0.5 93.61 0 91.19-0.5 89.39-1.95 87.59-3.4 87.59-5.45 87.59-7.5 88.34-9.53 89.09-11.55 89.94-12.2ZM126.44-18L126.44-0.3Q126.44 0.3 122.24 0.3L122.24 0.3Q117.24 0.1 117.24-0.35L117.24-0.35 117.24-18.05 114.69-18.05Q113.69-18.05 113.69-21.5L113.69-21.5Q113.69-22.4 113.86-23.7 114.04-25 114.59-25L114.59-25 117.24-25 117.24-29.4Q117.24-30.4 121.46-30.4 125.69-30.4 125.69-29.6L125.69-29.6 125.69-26.4 125.74-25 129.99-25Q130.84-25 130.84-21.5 130.84-18 129.99-18L129.99-18 126.44-18ZM136.48-18.15L136.48-18.15Q135.08-20.65 135.08-22.23 135.08-23.8 135.93-24.25L135.93-24.25Q138.78-25.5 143.76-25.5 148.73-25.5 150.78-23.18 152.83-20.85 152.83-16.3L152.83-16.3 152.83-8.4 154.53-8.4Q155.38-8.4 155.86-7.4 156.33-6.4 156.33-4.65 156.33-2.9 155.46-1.2 154.58 0.5 153.08 0.5L153.08 0.5Q150.38 0.5 148.73-0.95L148.73-0.95Q147.98-1.55 147.58-2.4L147.58-2.4Q145.28 0.5 140.43 0.5L140.43 0.5Q136.78 0.5 134.28-2.1 131.78-4.7 131.78-8.25L131.78-8.25Q131.78-16.4 141.53-16.4L141.53-16.4 144.28-16.4 144.28-16.9Q144.28-18.2 143.86-18.57 143.43-18.95 141.88-18.95L141.88-18.95Q139.98-18.95 136.48-18.15ZM140.48-8.95L140.48-8.95Q140.48-7.85 141.08-7.28 141.68-6.7 142.61-6.7 143.53-6.7 144.28-7.45L144.28-7.45 144.28-11.3 142.88-11.3Q140.48-11.3 140.48-8.95ZM167.38-12.4L167.38-12.4Q167.38-7.5 171.08-7.5L171.08-7.5Q173.48-7.5 175.08-8.45L175.08-8.45Q175.83-8.45 176.31-5.88 176.78-3.3 176.78-2.38 176.78-1.45 176.53-1.15L176.53-1.15Q173.88 0.5 169.28 0.5 164.68 0.5 161.46-2.93 158.23-6.35 158.23-12.28 158.23-18.2 161.41-21.85 164.58-25.5 169.86-25.5 175.13-25.5 177.18-22.95L177.18-22.95Q177.63-22.4 177.63-21.33 177.63-20.25 177.23-18.7L177.23-18.7Q176.33-15.5 174.88-15L174.88-15Q174.68-14.95 174.31-14.95 173.93-14.95 173.38-15.55L173.38-15.55Q171.43-17.5 170.25-17.5 169.08-17.5 168.23-16.3 167.38-15.1 167.38-12.4ZM180.38-0.3L180.38-34.6Q180.38-35.4 184.93-35.4L184.93-35.4Q189.18-35.25 189.18-34.75L189.18-34.75 189.18-15.55 194.13-24.7Q194.48-25.45 198.38-25.45 202.28-25.45 203.38-24.95L203.38-24.95 196.88-14.35 204.38-0.3Q204.48-0.1 202.5 0.03 200.53 0.15 199.23 0.15L199.23 0.15Q194.43 0.15 194.08-0.3L194.08-0.3 189.13-11.4 189.13-0.35Q189.13 0.3 184.75 0.3 180.38 0.3 180.38-0.3L180.38-0.3ZM220.27-1.25L215.12-34.5Q214.97-35.05 220.17-35.05L220.17-35.05Q225.92-35.05 226.07-34.1L226.07-34.1 228.52-13.05 233.82-34.35Q234.07-35.1 237.72-35.1 241.37-35.1 241.62-34.4L241.62-34.4 246.82-12.95 249.72-34.2Q249.82-34.75 252.02-34.95 254.22-35.15 255.57-35.15L255.57-35.15Q260.82-35.15 260.67-34.45L260.67-34.45 254.62-1.3Q254.42-0.55 251.77-0.2 249.12 0.15 247.47 0.15L247.47 0.15Q241.27 0.15 240.97-1.25L240.97-1.25 237.57-15 233.87-1.3Q233.67-0.4 230.37 0L230.37 0Q228.67 0.15 226.97 0.15L226.97 0.15 223.77 0Q220.47-0.35 220.27-1.25L220.27-1.25ZM281.62-1.35L281.62-1.35Q278.47 0.5 273.52 0.5 268.57 0.5 265.17-2.88 261.77-6.25 261.77-12.23 261.77-18.2 265.05-21.85 268.32-25.5 273.32-25.5 278.32-25.5 281.05-22.95 283.77-20.4 283.77-16.75L283.77-16.75Q283.77-8.65 274.47-8.65L274.47-8.65 271.02-8.65Q271.02-7.15 271.85-6.58 272.67-6 274.27-6L274.27-6Q277.77-6 280.92-7.6L280.92-7.6Q280.97-7.65 281.37-6.9L281.37-6.9Q282.57-4.75 282.57-3.28 282.57-1.8 281.62-1.35ZM275.37-15.8L275.37-15.8Q275.37-17.9 273.32-17.9L273.32-17.9Q272.37-17.9 271.7-17.32 271.02-16.75 271.02-15.65L271.02-15.65 271.02-14.1 273.72-14.1Q275.37-14.1 275.37-15.8ZM287.27-2.15L287.27-34.85Q287.27-35.45 291.59-35.45 295.92-35.45 295.92-34.8L295.92-34.8 295.92-25.1Q298.07-25.5 298.97-25.5L298.97-25.5Q309.47-25.5 309.47-13.45L309.47-13.45Q309.47-6.75 306.24-3.13 303.02 0.5 297.09 0.5 291.17 0.5 287.27-2.15L287.27-2.15ZM297.57-17.7L297.57-17.7Q296.72-17.7 295.92-17.15L295.92-17.15 295.92-7.6Q296.62-7.3 297.39-7.3 298.17-7.3 298.97-7.9L298.97-7.9Q300.37-8.9 300.37-12.55L300.37-12.55Q300.37-17.7 297.57-17.7ZM322.66-2.3L322.66-2.3 322.66-32.3Q322.66-33.55 323.29-34.27 323.91-35 324.91-35L324.91-35 333.26-35Q341.21-35 345.34-31 349.46-27 349.46-18.4L349.46-18.4Q349.46 0 333.76 0L333.76 0 325.21 0Q322.66 0 322.66-2.3ZM332.76-25.5L332.26-25.5 332.26-10.55Q332.26-9.5 332.41-9.22 332.56-8.95 333.31-8.95L333.31-8.95Q336.06-8.95 337.49-11 338.91-13.05 338.91-17.82 338.91-22.6 337.44-24.05 335.96-25.5 332.76-25.5L332.76-25.5ZM372.11-1.35L372.11-1.35Q368.96 0.5 364.01 0.5 359.06 0.5 355.66-2.88 352.26-6.25 352.26-12.23 352.26-18.2 355.54-21.85 358.81-25.5 363.81-25.5 368.81-25.5 371.54-22.95 374.26-20.4 374.26-16.75L374.26-16.75Q374.26-8.65 364.96-8.65L364.96-8.65 361.51-8.65Q361.51-7.15 362.34-6.58 363.16-6 364.76-6L364.76-6Q368.26-6 371.41-7.6L371.41-7.6Q371.46-7.65 371.86-6.9L371.86-6.9Q373.06-4.75 373.06-3.28 373.06-1.8 372.11-1.35ZM365.86-15.8L365.86-15.8Q365.86-17.9 363.81-17.9L363.81-17.9Q362.86-17.9 362.19-17.32 361.51-16.75 361.51-15.65L361.51-15.65 361.51-14.1 364.21-14.1Q365.86-14.1 365.86-15.8ZM382.01-0.6L375.56-24.85Q375.41-25.25 380.23-25.25 385.06-25.25 385.06-25L385.06-25 388.66-8 391.36-24.75Q391.51-25.2 396.31-25.2L396.31-25.2Q401.16-25.2 401.01-24.8L401.01-24.8 393.96-0.35Q393.61 0.15 388.01 0.15 382.41 0.15 382.01-0.6L382.01-0.6ZM422.46-1.35L422.46-1.35Q419.31 0.5 414.36 0.5 409.41 0.5 406.01-2.88 402.61-6.25 402.61-12.23 402.61-18.2 405.88-21.85 409.16-25.5 414.16-25.5 419.16-25.5 421.88-22.95 424.61-20.4 424.61-16.75L424.61-16.75Q424.61-8.65 415.31-8.65L415.31-8.65 411.86-8.65Q411.86-7.15 412.68-6.58 413.51-6 415.11-6L415.11-6Q418.61-6 421.76-7.6L421.76-7.6Q421.81-7.65 422.21-6.9L422.21-6.9Q423.41-4.75 423.41-3.28 423.41-1.8 422.46-1.35ZM416.21-15.8L416.21-15.8Q416.21-17.9 414.16-17.9L414.16-17.9Q413.21-17.9 412.53-17.32 411.86-16.75 411.86-15.65L411.86-15.65 411.86-14.1 414.56-14.1Q416.21-14.1 416.21-15.8ZM436.95-34.65L436.95-0.4Q436.95 0.05 431.85 0.05L431.85 0.05Q427.85 0 427.85-0.35L427.85-0.35 427.85-34.4Q427.85-35.15 432.7-35.15L432.7-35.15Q436.95-35 436.95-34.65L436.95-34.65ZM443.63-2.95Q440.5-6.4 440.5-12.5 440.5-18.6 443.63-22.05 446.75-25.5 452.05-25.5 457.35-25.5 460.45-22.05 463.55-18.6 463.55-12.5 463.55-6.4 460.45-2.95 457.35 0.5 452.05 0.5 446.75 0.5 443.63-2.95ZM452.08-17.15Q449.25-17.15 449.25-12.55 449.25-7.95 452.08-7.95 454.9-7.95 454.9-12.55 454.9-17.15 452.08-17.15ZM477.85 0L477.85 9.1Q477.85 9.45 473.57 9.45 469.3 9.45 469.3 9.1L469.3 9.1 469.3-16.65 467.6-16.65Q466.4-16.65 465.95-18.85L465.95-18.85Q465.8-19.55 465.8-20.65 465.8-21.75 466.5-23.25L466.5-23.25Q467.5-25.45 469.7-25.45L469.7-25.45Q471.15-25.45 472.37-24.78 473.6-24.1 474.07-23.53 474.55-22.95 474.55-22.85L474.55-22.85Q477.9-25.45 481.8-25.45 485.7-25.45 488.5-22.43 491.3-19.4 491.3-13.08 491.3-6.75 488.5-3.28 485.7 0.2 481.4 0.2L481.4 0.2Q479.45 0.2 477.85 0L477.85 0ZM479.9-16.7L479.9-16.7Q479.05-16.7 478.25-16.15L478.25-16.15 478.25-7.3Q479.1-7.2 479.62-7.2 480.15-7.2 480.45-7.2L480.45-7.2Q482.5-7.4 482.5-12.45L482.5-12.45Q482.5-16.7 479.9-16.7ZM513.75-1.35L513.75-1.35Q510.6 0.5 505.65 0.5 500.7 0.5 497.3-2.88 493.9-6.25 493.9-12.23 493.9-18.2 497.17-21.85 500.45-25.5 505.45-25.5 510.45-25.5 513.17-22.95 515.9-20.4 515.9-16.75L515.9-16.75Q515.9-8.65 506.6-8.65L506.6-8.65 503.15-8.65Q503.15-7.15 503.97-6.58 504.8-6 506.4-6L506.4-6Q509.9-6 513.05-7.6L513.05-7.6Q513.1-7.65 513.5-6.9L513.5-6.9Q514.7-4.75 514.7-3.28 514.7-1.8 513.75-1.35ZM507.5-15.8L507.5-15.8Q507.5-17.9 505.45-17.9L505.45-17.9Q504.5-17.9 503.82-17.32 503.15-16.75 503.15-15.65L503.15-15.65 503.15-14.1 505.85-14.1Q507.5-14.1 507.5-15.8ZM530.09-14L530.09-0.05Q530.09 0.3 525.54 0.3L525.54 0.3Q520.99 0.2 520.99-0.1L520.99-0.1 520.99-16.7 519.64-16.7Q518.84-16.7 518.37-17.68 517.89-18.65 517.89-20.1L517.89-20.1Q517.89-25.5 521.09-25.5L521.09-25.5Q523.34-25.5 524.84-24.13 526.34-22.75 526.34-21L526.34-21Q527.39-23.05 529.17-24.28 530.94-25.5 532.79-25.5L532.79-25.5Q535.69-25.5 536.29-24L536.29-24Q536.44-23.6 536.44-22.83 536.44-22.05 535.97-20.05 535.49-18.05 534.99-17.15 534.49-16.25 534.39-16.25 534.29-16.25 533.47-16.63 532.64-17 531.99-17L531.99-17Q530.09-17 530.09-14L530.09-14Z" opacity="1" transform="matrix(1,0,0,1,0,0)" fill="#97978d" class="slogan-text-1" data-fill-palette-color="secondary" id="text-1"></path></svg></g></svg></g></svg></g></svg></g><g transform="matrix(1,0,0,1,57.62149933051738,0)"><svg viewBox="0 0 76.75700133896524 76.12367536648726" height="76.12367536648726" width="76.75700133896524"><g><svg xmlns="http://www.w3.org/2000/svg" xmlns:xlink="http://www.w3.org/1999/xlink" version="1.1" x="0" y="0" viewBox="0.7534958124160767 0.8368608355522156 46.648033142089844 46.26313781738281" enable-background="new 0 0 48 48" xml:space="preserve" height="76.12367536648726" width="76.75700133896524" class="icon-icon-0" data-fill-palette-color="accent" id="icon-0"><g fill="#97978d" data-fill-palette-color="accent"><g fill="#97978d" data-fill-palette-color="accent"><g fill="#97978d" data-fill-palette-color="accent"><path fill="#97978d" d="M0.9 2.4C1.3 11.2 1.3 20.1 1.3 29c0 2.1-0.8 11.5 2.9 11.7 8.7 0.6 17.6 0.1 26.3 0.1 2.4 0 14.7 1.5 15.6-1.8 2.1-7.3 1.1-16.1 0.8-23.6-0.2-4.2-0.4-8.5-0.6-12.7 0-0.9-0.4-1.1-1.2-1.3-3.4-1-8.2-0.1-11.7-0.2-4.5-0.1-9-0.1-13.5-0.2C15.4 1.1 10.9 1 6.4 1c-1.7 0-4.2-0.7-5.5 0.8C0.4 2.3 1.3 3.2 1.8 2.6c1.1-1.2 7-0.4 8.5-0.3 3.2 0 6.4 0.1 9.6 0.1 6.4 0.1 12.9 0.2 19.3 0.3 1.3 0 2.6 0 3.9 0.1 2.8 0 2.2 3.9 2.3 5.5 0.2 3.1 0.3 6.1 0.4 9.2 0.3 6.2 0.3 12.5-0.3 18.7-0.5 5.4-15.4 3.6-18.8 3.6-6.5 0-13 0-19.4 0-5.1 0-4.4-4.7-4.6-8.6-0.1-3.2 0-6.4 0-9.6 0-6.3-0.2-12.7-0.4-19C2.2 1.5 0.9 1.5 0.9 2.4L0.9 2.4z" data-fill-palette-color="accent"></path></g></g><g fill="#97978d" data-fill-palette-color="accent"><g fill="#97978d" data-fill-palette-color="accent"><path fill="#97978d" d="M17.2 10.2c-1.6 1.4-3.8 2.1-5.5 3.3-1 0.7-2.9 2.1-3.3 3.4-0.2 0.9 0.9 1.4 1.5 1.8 2.4 1.5 4.5 3.3 6.4 5.3 0.6 0.6 1.4-0.3 0.9-0.9-1.2-1.2-2.4-2.4-3.7-3.5-0.5-0.4-3.8-2.4-3.3-3.1 2.2-2.6 5.5-3.4 8-5.6C18.7 10.5 17.8 9.6 17.2 10.2L17.2 10.2z" data-fill-palette-color="accent"></path></g></g><g fill="#97978d" data-fill-palette-color="accent"><g fill="#97978d" data-fill-palette-color="accent"><path fill="#97978d" d="M27.2 6.7c-2.7 7.2-5.2 14.5-7.6 21.9-0.3 0.8 1 1.1 1.2 0.3 2.4-7.3 4.9-14.6 7.6-21.9C28.7 6.3 27.5 5.9 27.2 6.7L27.2 6.7z" data-fill-palette-color="accent"></path></g></g><g fill="#97978d" data-fill-palette-color="accent"><g fill="#97978d" data-fill-palette-color="accent"><path fill="#97978d" d="M29.3 11.6c1.5 1.1 2.9 2.3 4.4 3.4 0.9 0.7 1.8 1.4 2.6 2.1 1.3 1 0.7 0.9-0.4 1.7-2.4 1.7-4.3 3.9-6 6.3-0.5 0.7 0.6 1.3 1.1 0.6 1.4-2 3.1-3.8 5-5.4 0.4-0.3 2.7-1.5 2.7-2.4 0-1.2-1.5-1.9-2.3-2.5-2.1-1.6-4.1-3.2-6.2-4.8C29.5 10.2 28.6 11.1 29.3 11.6L29.3 11.6z" data-fill-palette-color="accent"></path></g></g><g fill="#97978d" data-fill-palette-color="accent"><g fill="#97978d" data-fill-palette-color="accent"><path fill="#97978d" d="M2.3 31.9c14.8 0.3 29.5 0.2 44.3-0.3 0.8 0 0.8-1.3 0-1.3-14.8 0.6-29.5 0.7-44.3 0.3C1.5 30.6 1.5 31.9 2.3 31.9L2.3 31.9z" data-fill-palette-color="accent"></path></g></g><g fill="#97978d" data-fill-palette-color="accent"><g fill="#97978d" data-fill-palette-color="accent"><path fill="#97978d" d="M21.1 36.6c1.1 0 2.2 0 3.3 0 0.8 0 0.8-1.3 0-1.3-1.1 0-2.2 0-3.3 0C20.3 35.4 20.3 36.6 21.1 36.6L21.1 36.6z" data-fill-palette-color="accent"></path></g></g><g fill="#97978d" data-fill-palette-color="accent"><g fill="#97978d" data-fill-palette-color="accent"><path fill="#97978d" d="M23.8 40.3c-0.3 1.8-0.4 3.6-0.2 5.5 0.1 0.8 1.3 0.8 1.3 0-0.2-1.7-0.2-3.4 0.1-5.1C25.2 39.8 24 39.5 23.8 40.3L23.8 40.3z" data-fill-palette-color="accent"></path></g></g><g fill="#97978d" data-fill-palette-color="accent"><g fill="#97978d" data-fill-palette-color="accent"><path fill="#97978d" d="M15.1 47.1c6.9 0 13.8 0 20.6 0 0.8 0 0.8-1.3 0-1.3-6.9 0-13.8 0-20.6 0C14.3 45.8 14.3 47.1 15.1 47.1L15.1 47.1z" data-fill-palette-color="accent"></path></g></g></g></svg></g></svg></g><g></g></svg></g></svg></g></svg></g><defs></defs></svg><rect width="320" height="360" fill="none" stroke="none" visibility="hidden"></rect></g></svg></g></svg>